<svg viewBox="0 0 64 64" xmlns="http://www.w3.org/2000/svg" xmlns:xlink="http://www.w3.org/1999/xlink" width="64.000000" height="64.000000" fill="none">
	<rect id="9104301_loading_wait_refresh_reload_update_icon 1" width="64.000000" height="64.000000" x="0.000000" y="0.000000" fill="rgb(255,255,255)" fill-opacity="0" transform="matrix(-1,-8.74228e-08,8.74228e-08,-1,64,64)" />
	<g id="_icons">
		<g id="Group">
			<path id="Vector" d="M2.66667 5.33333C4.13943 5.33333 5.33333 4.13943 5.33333 2.66667C5.33333 1.19391 4.13943 0 2.66667 0C1.19391 0 0 1.19391 0 2.66667C0 4.13943 1.19391 5.33333 2.66667 5.33333Z" fill="rgb(67,167,179)" fill-rule="evenodd" transform="matrix(-1,-8.74228e-08,8.74228e-08,-1,34.667,56)" />
			<path id="Vector" d="M1.88154 6.2495C2.13714 6.30539 2.39885 6.33333 2.66667 6.33333C2.93448 6.33333 3.19617 6.30539 3.45176 6.24951C3.67038 6.20171 3.88453 6.13346 4.09421 6.04478C4.30375 5.95615 4.5018 5.85014 4.68836 5.72676C4.89246 5.59177 5.0828 5.43598 5.25939 5.25939C5.43597 5.08281 5.59175 4.89248 5.72674 4.68839C5.85013 4.50182 5.95614 4.30376 6.04478 4.09421C6.13346 3.88454 6.2017 3.6704 6.2495 3.4518C6.30539 3.1962 6.33333 2.93449 6.33333 2.66667C6.33333 2.39886 6.30539 2.13715 6.24951 1.88156C6.20171 1.66295 6.13346 1.4488 6.04478 1.23913C5.95614 1.02957 5.85013 0.831512 5.72674 0.644946C5.59175 0.440856 5.43597 0.250521 5.25939 0.0739418C5.08281 -0.102641 4.89247 -0.258426 4.68837 -0.393411C4.50181 -0.516801 4.30376 -0.622812 4.09421 -0.711445C3.88454 -0.800124 3.67041 -0.868364 3.45181 -0.916164C3.19621 -0.972055 2.93449 -1 2.66667 -1C2.39884 -1 2.13713 -0.972055 1.88153 -0.916165C1.66292 -0.868365 1.44879 -0.800125 1.23913 -0.711445C1.02958 -0.622813 0.831523 -0.516803 0.644962 -0.393414C0.440866 -0.258427 0.250526 -0.102642 0.0739418 0.0739416C-0.102643 0.250526 -0.258428 0.440867 -0.393415 0.644964C-0.516803 0.831524 -0.622813 1.02958 -0.711445 1.23913C-0.800125 1.44879 -0.868365 1.66293 -0.916165 1.88153C-0.972055 2.13713 -1 2.39884 -1 2.66667C-1 2.93449 -0.972055 3.1962 -0.916165 3.4518C-0.868365 3.67041 -0.800125 3.88454 -0.711445 4.09421C-0.622818 4.30374 -0.516814 4.50179 -0.393433 4.68834C-0.258443 4.89245 -0.102651 5.0828 0.0739416 5.25939C0.250522 5.43597 0.440859 5.59176 0.644951 5.72674C0.831516 5.85013 1.02957 5.95614 1.23913 6.04478C1.44879 6.13346 1.66293 6.2017 1.88154 6.2495ZM5.33333 2.66667C5.33333 4.13943 4.13943 5.33333 2.66667 5.33333C1.19391 5.33333 0 4.13943 0 2.66667C0 1.19391 1.19391 0 2.66667 0C4.13943 0 5.33333 1.19391 5.33333 2.66667Z" fill="rgb(67,167,179)" fill-rule="evenodd" transform="matrix(-1,-8.74228e-08,8.74228e-08,-1,34.667,56)" />
			<path id="Vector" d="M2.66667 5.33333C4.13943 5.33333 5.33333 4.13943 5.33333 2.66667C5.33333 1.19391 4.13943 0 2.66667 0C1.19391 0 0 1.19391 0 2.66667C0 4.13943 1.19391 5.33333 2.66667 5.33333Z" fill="rgb(67,167,179)" fill-rule="evenodd" transform="matrix(-0.5,0.866,-0.866,-0.5,24.9111,49.4606)" />
			<path id="Vector" d="M1.88154 6.2495C2.13714 6.30539 2.39885 6.33333 2.66667 6.33333C2.93448 6.33333 3.19617 6.30539 3.45176 6.24951C3.67038 6.20171 3.88453 6.13346 4.09421 6.04478C4.30375 5.95615 4.5018 5.85014 4.68836 5.72676C4.89246 5.59177 5.0828 5.43598 5.25939 5.25939C5.43597 5.08281 5.59175 4.89248 5.72674 4.68839C5.85013 4.50182 5.95614 4.30376 6.04478 4.09421C6.13346 3.88454 6.2017 3.6704 6.2495 3.4518C6.30539 3.1962 6.33333 2.93449 6.33333 2.66667C6.33333 2.39886 6.30539 2.13715 6.24951 1.88156C6.20171 1.66295 6.13346 1.4488 6.04478 1.23913C5.95614 1.02957 5.85013 0.831512 5.72674 0.644946C5.59175 0.440856 5.43597 0.250521 5.25939 0.0739418C5.08281 -0.102641 4.89247 -0.258426 4.68837 -0.393411C4.50181 -0.516801 4.30376 -0.622812 4.09421 -0.711445C3.88454 -0.800124 3.67041 -0.868364 3.45181 -0.916164C3.19621 -0.972055 2.93449 -1 2.66667 -1C2.39884 -1 2.13713 -0.972055 1.88153 -0.916165C1.66292 -0.868365 1.44879 -0.800125 1.23913 -0.711445C1.02958 -0.622813 0.831523 -0.516803 0.644962 -0.393414C0.440866 -0.258427 0.250526 -0.102642 0.0739418 0.0739416C-0.102643 0.250526 -0.258428 0.440867 -0.393415 0.644964C-0.516803 0.831524 -0.622813 1.02958 -0.711445 1.23913C-0.800125 1.44879 -0.868365 1.66293 -0.916165 1.88153C-0.972055 2.13713 -1 2.39884 -1 2.66667C-1 2.93449 -0.972055 3.1962 -0.916165 3.4518C-0.868365 3.67041 -0.800125 3.88454 -0.711445 4.09421C-0.622818 4.30374 -0.516814 4.50179 -0.393433 4.68834C-0.258443 4.89245 -0.102651 5.0828 0.0739416 5.25939C0.250522 5.43597 0.440859 5.59176 0.644951 5.72674C0.831516 5.85013 1.02957 5.95614 1.23913 6.04478C1.44879 6.13346 1.66293 6.2017 1.88154 6.2495ZM5.33333 2.66667C5.33333 4.13943 4.13943 5.33333 2.66667 5.33333C1.19391 5.33333 0 4.13943 0 2.66667C0 1.19391 1.19391 0 2.66667 0C4.13943 0 5.33333 1.19391 5.33333 2.66667Z" fill="rgb(67,167,179)" fill-rule="evenodd" transform="matrix(-0.5,0.866,-0.866,-0.5,24.9111,49.4606)" />
			<path id="Vector" d="M2.66667 5.33333C4.13943 5.33333 5.33333 4.13943 5.33333 2.66667C5.33333 1.19391 4.13943 0 2.66667 0C1.19391 0 0 1.19391 0 2.66667C0 4.13943 1.19391 5.33333 2.66667 5.33333Z" fill="rgb(67,167,179)" fill-rule="evenodd" transform="matrix(-0.866,0.5,-0.5,-0.866,17.2344,43.6056)" />
			<path id="Vector" d="M1.88154 6.2495C2.13714 6.30539 2.39885 6.33333 2.66667 6.33333C2.93448 6.33333 3.19617 6.30539 3.45176 6.24951C3.67038 6.20171 3.88453 6.13346 4.09421 6.04478C4.30375 5.95615 4.5018 5.85014 4.68836 5.72676C4.89246 5.59177 5.0828 5.43598 5.25939 5.25939C5.43597 5.08281 5.59175 4.89248 5.72674 4.68839C5.85013 4.50182 5.95614 4.30376 6.04478 4.09421C6.13346 3.88454 6.2017 3.6704 6.2495 3.4518C6.30539 3.1962 6.33333 2.93449 6.33333 2.66667C6.33333 2.39886 6.30539 2.13715 6.24951 1.88156C6.20171 1.66295 6.13346 1.4488 6.04478 1.23913C5.95614 1.02957 5.85013 0.831512 5.72674 0.644946C5.59175 0.440856 5.43597 0.250521 5.25939 0.0739418C5.08281 -0.102641 4.89247 -0.258426 4.68837 -0.393411C4.50181 -0.516801 4.30376 -0.622812 4.09421 -0.711445C3.88454 -0.800124 3.67041 -0.868364 3.45181 -0.916164C3.19621 -0.972055 2.93449 -1 2.66667 -1C2.39884 -1 2.13713 -0.972055 1.88153 -0.916165C1.66292 -0.868365 1.44879 -0.800125 1.23913 -0.711445C1.02958 -0.622813 0.831523 -0.516803 0.644962 -0.393414C0.440866 -0.258427 0.250526 -0.102642 0.0739418 0.0739416C-0.102643 0.250526 -0.258428 0.440867 -0.393415 0.644964C-0.516803 0.831524 -0.622813 1.02958 -0.711445 1.23913C-0.800125 1.44879 -0.868365 1.66293 -0.916165 1.88153C-0.972055 2.13713 -1 2.39884 -1 2.66667C-1 2.93449 -0.972055 3.1962 -0.916165 3.4518C-0.868365 3.67041 -0.800125 3.88454 -0.711445 4.09421C-0.622818 4.30374 -0.516814 4.50179 -0.393433 4.68834C-0.258443 4.89245 -0.102651 5.0828 0.0739416 5.25939C0.250522 5.43597 0.440859 5.59176 0.644951 5.72674C0.831516 5.85013 1.02957 5.95614 1.23913 6.04478C1.44879 6.13346 1.66293 6.2017 1.88154 6.2495ZM5.33333 2.66667C5.33333 4.13943 4.13943 5.33333 2.66667 5.33333C1.19391 5.33333 0 4.13943 0 2.66667C0 1.19391 1.19391 0 2.66667 0C4.13943 0 5.33333 1.19391 5.33333 2.66667Z" fill="rgb(67,167,179)" fill-rule="evenodd" transform="matrix(-0.866,0.5,-0.5,-0.866,17.2344,43.6056)" />
			<path id="Vector" d="M2.66667 5.33333C4.13943 5.33333 5.33333 4.13943 5.33333 2.66667C5.33333 1.19391 4.13943 0 2.66667 0C1.19391 0 0 1.19391 0 2.66667C0 4.13943 1.19391 5.33333 2.66667 5.33333Z" fill="rgb(67,167,179)" fill-rule="evenodd" transform="matrix(-1,-8.74228e-08,8.74228e-08,-1,13.333,34.6666)" />
			<path id="Vector" d="M1.88154 6.2495C2.13714 6.30539 2.39885 6.33333 2.66667 6.33333C2.93448 6.33333 3.19617 6.30539 3.45176 6.24951C3.67038 6.20171 3.88453 6.13346 4.09421 6.04478C4.30375 5.95615 4.5018 5.85014 4.68836 5.72676C4.89246 5.59177 5.0828 5.43598 5.25939 5.25939C5.43597 5.08281 5.59175 4.89248 5.72674 4.68839C5.85013 4.50182 5.95614 4.30376 6.04478 4.09421C6.13346 3.88454 6.2017 3.6704 6.2495 3.4518C6.30539 3.1962 6.33333 2.93449 6.33333 2.66667C6.33333 2.39886 6.30539 2.13715 6.24951 1.88156C6.20171 1.66295 6.13346 1.4488 6.04478 1.23913C5.95614 1.02957 5.85013 0.831512 5.72674 0.644946C5.59175 0.440856 5.43597 0.250521 5.25939 0.0739418C5.08281 -0.102641 4.89247 -0.258426 4.68837 -0.393411C4.50181 -0.516801 4.30376 -0.622812 4.09421 -0.711445C3.88454 -0.800124 3.67041 -0.868364 3.45181 -0.916164C3.19621 -0.972055 2.93449 -1 2.66667 -1C2.39884 -1 2.13713 -0.972055 1.88153 -0.916165C1.66292 -0.868365 1.44879 -0.800125 1.23913 -0.711445C1.02958 -0.622813 0.831523 -0.516803 0.644962 -0.393414C0.440866 -0.258427 0.250526 -0.102642 0.0739418 0.0739416C-0.102643 0.250526 -0.258428 0.440867 -0.393415 0.644964C-0.516803 0.831524 -0.622813 1.02958 -0.711445 1.23913C-0.800125 1.44879 -0.868365 1.66293 -0.916165 1.88153C-0.972055 2.13713 -1 2.39884 -1 2.66667C-1 2.93449 -0.972055 3.1962 -0.916165 3.4518C-0.868365 3.67041 -0.800125 3.88454 -0.711445 4.09421C-0.622818 4.30374 -0.516814 4.50179 -0.393433 4.68834C-0.258443 4.89245 -0.102651 5.0828 0.0739416 5.25939C0.250522 5.43597 0.440859 5.59176 0.644951 5.72674C0.831516 5.85013 1.02957 5.95614 1.23913 6.04478C1.44879 6.13346 1.66293 6.2017 1.88154 6.2495ZM5.33333 2.66667C5.33333 4.13943 4.13943 5.33333 2.66667 5.33333C1.19391 5.33333 0 4.13943 0 2.66667C0 1.19391 1.19391 0 2.66667 0C4.13943 0 5.33333 1.19391 5.33333 2.66667Z" fill="rgb(67,167,179)" fill-rule="evenodd" transform="matrix(-1,-8.74228e-08,8.74228e-08,-1,13.333,34.6666)" />
			<path id="Vector" d="M2.66667 5.33333C4.13943 5.33333 5.33333 4.13943 5.33333 2.66667C5.33333 1.19391 4.13943 0 2.66667 0C1.19391 0 0 1.19391 0 2.66667C0 4.13943 1.19391 5.33333 2.66667 5.33333Z" fill="rgb(67,167,179)" fill-rule="evenodd" transform="matrix(-0.5,0.866,-0.866,-0.5,17.2061,20.2909)" />
			<path id="Vector" d="M1.88154 6.2495C2.13714 6.30539 2.39885 6.33333 2.66667 6.33333C2.93448 6.33333 3.19617 6.30539 3.45176 6.24951C3.67038 6.20171 3.88453 6.13346 4.09421 6.04478C4.30375 5.95615 4.5018 5.85014 4.68836 5.72676C4.89246 5.59177 5.0828 5.43598 5.25939 5.25939C5.43597 5.08281 5.59175 4.89248 5.72674 4.68839C5.85013 4.50182 5.95614 4.30376 6.04478 4.09421C6.13346 3.88454 6.2017 3.6704 6.2495 3.4518C6.30539 3.1962 6.33333 2.93449 6.33333 2.66667C6.33333 2.39886 6.30539 2.13715 6.24951 1.88156C6.20171 1.66295 6.13346 1.4488 6.04478 1.23913C5.95614 1.02957 5.85013 0.831512 5.72674 0.644946C5.59175 0.440856 5.43597 0.250521 5.25939 0.0739418C5.08281 -0.102641 4.89247 -0.258426 4.68837 -0.393411C4.50181 -0.516801 4.30376 -0.622812 4.09421 -0.711445C3.88454 -0.800124 3.67041 -0.868364 3.45181 -0.916164C3.19621 -0.972055 2.93449 -1 2.66667 -1C2.39884 -1 2.13713 -0.972055 1.88153 -0.916165C1.66292 -0.868365 1.44879 -0.800125 1.23913 -0.711445C1.02958 -0.622813 0.831523 -0.516803 0.644962 -0.393414C0.440866 -0.258427 0.250526 -0.102642 0.0739418 0.0739416C-0.102643 0.250526 -0.258428 0.440867 -0.393415 0.644964C-0.516803 0.831524 -0.622813 1.02958 -0.711445 1.23913C-0.800125 1.44879 -0.868365 1.66293 -0.916165 1.88153C-0.972055 2.13713 -1 2.39884 -1 2.66667C-1 2.93449 -0.972055 3.1962 -0.916165 3.4518C-0.868365 3.67041 -0.800125 3.88454 -0.711445 4.09421C-0.622818 4.30374 -0.516814 4.50179 -0.393433 4.68834C-0.258443 4.89245 -0.102651 5.0828 0.0739416 5.25939C0.250522 5.43597 0.440859 5.59176 0.644951 5.72674C0.831516 5.85013 1.02957 5.95614 1.23913 6.04478C1.44879 6.13346 1.66293 6.2017 1.88154 6.2495ZM5.33333 2.66667C5.33333 4.13943 4.13943 5.33333 2.66667 5.33333C1.19391 5.33333 0 4.13943 0 2.66667C0 1.19391 1.19391 0 2.66667 0C4.13943 0 5.33333 1.19391 5.33333 2.66667Z" fill="rgb(67,167,179)" fill-rule="evenodd" transform="matrix(-0.5,0.866,-0.866,-0.5,17.2061,20.2909)" />
			<path id="Vector" d="M2.66667 5.33333C4.13943 5.33333 5.33333 4.13943 5.33333 2.66667C5.33333 1.19391 4.13943 0 2.66667 0C1.19391 0 0 1.19391 0 2.66667C0 4.13943 1.19391 5.33333 2.66667 5.33333Z" fill="rgb(67,167,179)" fill-rule="evenodd" transform="matrix(-0.866,0.5,-0.5,-0.866,25.0146,14.5671)" />
			<path id="Vector" d="M1.88154 6.2495C2.13714 6.30539 2.39885 6.33333 2.66667 6.33333C2.93448 6.33333 3.19617 6.30539 3.45176 6.24951C3.67038 6.20171 3.88453 6.13346 4.09421 6.04478C4.30375 5.95615 4.5018 5.85014 4.68836 5.72676C4.89246 5.59177 5.0828 5.43598 5.25939 5.25939C5.43597 5.08281 5.59175 4.89248 5.72674 4.68839C5.85013 4.50182 5.95614 4.30376 6.04478 4.09421C6.13346 3.88454 6.2017 3.6704 6.2495 3.4518C6.30539 3.1962 6.33333 2.93449 6.33333 2.66667C6.33333 2.39886 6.30539 2.13715 6.24951 1.88156C6.20171 1.66295 6.13346 1.4488 6.04478 1.23913C5.95614 1.02957 5.85013 0.831512 5.72674 0.644946C5.59175 0.440856 5.43597 0.250521 5.25939 0.0739418C5.08281 -0.102641 4.89247 -0.258426 4.68837 -0.393411C4.50181 -0.516801 4.30376 -0.622812 4.09421 -0.711445C3.88454 -0.800124 3.67041 -0.868364 3.45181 -0.916164C3.19621 -0.972055 2.93449 -1 2.66667 -1C2.39884 -1 2.13713 -0.972055 1.88153 -0.916165C1.66292 -0.868365 1.44879 -0.800125 1.23913 -0.711445C1.02958 -0.622813 0.831523 -0.516803 0.644962 -0.393414C0.440866 -0.258427 0.250526 -0.102642 0.0739418 0.0739416C-0.102643 0.250526 -0.258428 0.440867 -0.393415 0.644964C-0.516803 0.831524 -0.622813 1.02958 -0.711445 1.23913C-0.800125 1.44879 -0.868365 1.66293 -0.916165 1.88153C-0.972055 2.13713 -1 2.39884 -1 2.66667C-1 2.93449 -0.972055 3.1962 -0.916165 3.4518C-0.868365 3.67041 -0.800125 3.88454 -0.711445 4.09421C-0.622818 4.30374 -0.516814 4.50179 -0.393433 4.68834C-0.258443 4.89245 -0.102651 5.0828 0.0739416 5.25939C0.250522 5.43597 0.440859 5.59176 0.644951 5.72674C0.831516 5.85013 1.02957 5.95614 1.23913 6.04478C1.44879 6.13346 1.66293 6.2017 1.88154 6.2495ZM5.33333 2.66667C5.33333 4.13943 4.13943 5.33333 2.66667 5.33333C1.19391 5.33333 0 4.13943 0 2.66667C0 1.19391 1.19391 0 2.66667 0C4.13943 0 5.33333 1.19391 5.33333 2.66667Z" fill="rgb(67,167,179)" fill-rule="evenodd" transform="matrix(-0.866,0.5,-0.5,-0.866,25.0146,14.5671)" />
			<path id="Vector" d="M2.66667 5.33333C4.13943 5.33333 5.33333 4.13943 5.33333 2.66667C5.33333 1.19391 4.13943 0 2.66667 0C1.19391 0 0 1.19391 0 2.66667C0 4.13943 1.19391 5.33333 2.66667 5.33333Z" fill="rgb(67,167,179)" fill-rule="evenodd" transform="matrix(-1,-8.74228e-08,8.74228e-08,-1,34.667,13.3334)" />
			<path id="Vector" d="M1.88154 6.2495C2.13714 6.30539 2.39885 6.33333 2.66667 6.33333C2.93448 6.33333 3.19617 6.30539 3.45176 6.24951C3.67038 6.20171 3.88453 6.13346 4.09421 6.04478C4.30375 5.95615 4.5018 5.85014 4.68836 5.72676C4.89246 5.59177 5.0828 5.43598 5.25939 5.25939C5.43597 5.08281 5.59175 4.89248 5.72674 4.68839C5.85013 4.50182 5.95614 4.30376 6.04478 4.09421C6.13346 3.88454 6.2017 3.6704 6.2495 3.4518C6.30539 3.1962 6.33333 2.93449 6.33333 2.66667C6.33333 2.39886 6.30539 2.13715 6.24951 1.88156C6.20171 1.66295 6.13346 1.4488 6.04478 1.23913C5.95614 1.02957 5.85013 0.831512 5.72674 0.644946C5.59175 0.440856 5.43597 0.250521 5.25939 0.0739418C5.08281 -0.102641 4.89247 -0.258426 4.68837 -0.393411C4.50181 -0.516801 4.30376 -0.622812 4.09421 -0.711445C3.88454 -0.800124 3.67041 -0.868364 3.45181 -0.916164C3.19621 -0.972055 2.93449 -1 2.66667 -1C2.39884 -1 2.13713 -0.972055 1.88153 -0.916165C1.66292 -0.868365 1.44879 -0.800125 1.23913 -0.711445C1.02958 -0.622813 0.831523 -0.516803 0.644962 -0.393414C0.440866 -0.258427 0.250526 -0.102642 0.0739418 0.0739416C-0.102643 0.250526 -0.258428 0.440867 -0.393415 0.644964C-0.516803 0.831524 -0.622813 1.02958 -0.711445 1.23913C-0.800125 1.44879 -0.868365 1.66293 -0.916165 1.88153C-0.972055 2.13713 -1 2.39884 -1 2.66667C-1 2.93449 -0.972055 3.1962 -0.916165 3.4518C-0.868365 3.67041 -0.800125 3.88454 -0.711445 4.09421C-0.622818 4.30374 -0.516814 4.50179 -0.393433 4.68834C-0.258443 4.89245 -0.102651 5.0828 0.0739416 5.25939C0.250522 5.43597 0.440859 5.59176 0.644951 5.72674C0.831516 5.85013 1.02957 5.95614 1.23913 6.04478C1.44879 6.13346 1.66293 6.2017 1.88154 6.2495ZM5.33333 2.66667C5.33333 4.13943 4.13943 5.33333 2.66667 5.33333C1.19391 5.33333 0 4.13943 0 2.66667C0 1.19391 1.19391 0 2.66667 0C4.13943 0 5.33333 1.19391 5.33333 2.66667Z" fill="rgb(67,167,179)" fill-rule="evenodd" transform="matrix(-1,-8.74228e-08,8.74228e-08,-1,34.667,13.3334)" />
			<path id="Vector" d="M2.66667 5.33333C4.13943 5.33333 5.33333 4.13943 5.33333 2.66667C5.33333 1.19391 4.13943 0 2.66667 0C1.19391 0 0 1.19391 0 2.66667C0 4.13943 1.19391 5.33333 2.66667 5.33333Z" fill="rgb(67,167,179)" fill-rule="evenodd" transform="matrix(-0.5,0.866,-0.866,-0.5,46.376,12.5858)" />
			<path id="Vector" d="M1.88154 6.2495C2.13714 6.30539 2.39885 6.33333 2.66667 6.33333C2.93448 6.33333 3.19617 6.30539 3.45176 6.24951C3.67038 6.20171 3.88453 6.13346 4.09421 6.04478C4.30375 5.95615 4.5018 5.85014 4.68836 5.72676C4.89246 5.59177 5.0828 5.43598 5.25939 5.25939C5.43597 5.08281 5.59175 4.89248 5.72674 4.68839C5.85013 4.50182 5.95614 4.30376 6.04478 4.09421C6.13346 3.88454 6.2017 3.6704 6.2495 3.4518C6.30539 3.1962 6.33333 2.93449 6.33333 2.66667C6.33333 2.39886 6.30539 2.13715 6.24951 1.88156C6.20171 1.66295 6.13346 1.4488 6.04478 1.23913C5.95614 1.02957 5.85013 0.831512 5.72674 0.644946C5.59175 0.440856 5.43597 0.250521 5.25939 0.0739418C5.08281 -0.102641 4.89247 -0.258426 4.68837 -0.393411C4.50181 -0.516801 4.30376 -0.622812 4.09421 -0.711445C3.88454 -0.800124 3.67041 -0.868364 3.45181 -0.916164C3.19621 -0.972055 2.93449 -1 2.66667 -1C2.39884 -1 2.13713 -0.972055 1.88153 -0.916165C1.66292 -0.868365 1.44879 -0.800125 1.23913 -0.711445C1.02958 -0.622813 0.831523 -0.516803 0.644962 -0.393414C0.440866 -0.258427 0.250526 -0.102642 0.0739418 0.0739416C-0.102643 0.250526 -0.258428 0.440867 -0.393415 0.644964C-0.516803 0.831524 -0.622813 1.02958 -0.711445 1.23913C-0.800125 1.44879 -0.868365 1.66293 -0.916165 1.88153C-0.972055 2.13713 -1 2.39884 -1 2.66667C-1 2.93449 -0.972055 3.1962 -0.916165 3.4518C-0.868365 3.67041 -0.800125 3.88454 -0.711445 4.09421C-0.622818 4.30374 -0.516814 4.50179 -0.393433 4.68834C-0.258443 4.89245 -0.102651 5.0828 0.0739416 5.25939C0.250522 5.43597 0.440859 5.59176 0.644951 5.72674C0.831516 5.85013 1.02957 5.95614 1.23913 6.04478C1.44879 6.13346 1.66293 6.2017 1.88154 6.2495ZM5.33333 2.66667C5.33333 4.13943 4.13943 5.33333 2.66667 5.33333C1.19391 5.33333 0 4.13943 0 2.66667C0 1.19391 1.19391 0 2.66667 0C4.13943 0 5.33333 1.19391 5.33333 2.66667Z" fill="rgb(67,167,179)" fill-rule="evenodd" transform="matrix(-0.5,0.866,-0.866,-0.5,46.376,12.5858)" />
			<path id="Vector" d="M2.66667 5.33333C4.13943 5.33333 5.33333 4.13943 5.33333 2.66667C5.33333 1.19391 4.13943 0 2.66667 0C1.19391 0 0 1.19391 0 2.66667C0 4.13943 1.19391 5.33333 2.66667 5.33333Z" fill="rgb(67,167,179)" fill-rule="evenodd" transform="matrix(-0.866,0.5,-0.5,-0.866,54.0527,22.348)" />
			<path id="Vector" d="M1.88154 6.2495C2.13714 6.30539 2.39885 6.33333 2.66667 6.33333C2.93448 6.33333 3.19617 6.30539 3.45176 6.24951C3.67038 6.20171 3.88453 6.13346 4.09421 6.04478C4.30375 5.95615 4.5018 5.85014 4.68836 5.72676C4.89246 5.59177 5.0828 5.43598 5.25939 5.25939C5.43597 5.08281 5.59175 4.89248 5.72674 4.68839C5.85013 4.50182 5.95614 4.30376 6.04478 4.09421C6.13346 3.88454 6.2017 3.6704 6.2495 3.4518C6.30539 3.1962 6.33333 2.93449 6.33333 2.66667C6.33333 2.39886 6.30539 2.13715 6.24951 1.88156C6.20171 1.66295 6.13346 1.4488 6.04478 1.23913C5.95614 1.02957 5.85013 0.831512 5.72674 0.644946C5.59175 0.440856 5.43597 0.250521 5.25939 0.0739418C5.08281 -0.102641 4.89247 -0.258426 4.68837 -0.393411C4.50181 -0.516801 4.30376 -0.622812 4.09421 -0.711445C3.88454 -0.800124 3.67041 -0.868364 3.45181 -0.916164C3.19621 -0.972055 2.93449 -1 2.66667 -1C2.39884 -1 2.13713 -0.972055 1.88153 -0.916165C1.66292 -0.868365 1.44879 -0.800125 1.23913 -0.711445C1.02958 -0.622813 0.831523 -0.516803 0.644962 -0.393414C0.440866 -0.258427 0.250526 -0.102642 0.0739418 0.0739416C-0.102643 0.250526 -0.258428 0.440867 -0.393415 0.644964C-0.516803 0.831524 -0.622813 1.02958 -0.711445 1.23913C-0.800125 1.44879 -0.868365 1.66293 -0.916165 1.88153C-0.972055 2.13713 -1 2.39884 -1 2.66667C-1 2.93449 -0.972055 3.1962 -0.916165 3.4518C-0.868365 3.67041 -0.800125 3.88454 -0.711445 4.09421C-0.622818 4.30374 -0.516814 4.50179 -0.393433 4.68834C-0.258443 4.89245 -0.102651 5.0828 0.0739416 5.25939C0.250522 5.43597 0.440859 5.59176 0.644951 5.72674C0.831516 5.85013 1.02957 5.95614 1.23913 6.04478C1.44879 6.13346 1.66293 6.2017 1.88154 6.2495ZM5.33333 2.66667C5.33333 4.13943 4.13943 5.33333 2.66667 5.33333C1.19391 5.33333 0 4.13943 0 2.66667C0 1.19391 1.19391 0 2.66667 0C4.13943 0 5.33333 1.19391 5.33333 2.66667Z" fill="rgb(67,167,179)" fill-rule="evenodd" transform="matrix(-0.866,0.5,-0.5,-0.866,54.0527,22.348)" />
			<path id="Vector" d="M2.66667 5.33333C4.13943 5.33333 5.33333 4.13943 5.33333 2.66667C5.33333 1.19391 4.13943 0 2.66667 0C1.19391 0 0 1.19391 0 2.66667C0 4.13943 1.19391 5.33333 2.66667 5.33333Z" fill="rgb(67,167,179)" fill-rule="evenodd" transform="matrix(-1,-8.74228e-08,8.74228e-08,-1,56,34.6666)" />
			<path id="Vector" d="M1.88154 6.2495C2.13714 6.30539 2.39885 6.33333 2.66667 6.33333C2.93448 6.33333 3.19617 6.30539 3.45176 6.24951C3.67038 6.20171 3.88453 6.13346 4.09421 6.04478C4.30375 5.95615 4.5018 5.85014 4.68836 5.72676C4.89246 5.59177 5.0828 5.43598 5.25939 5.25939C5.43597 5.08281 5.59175 4.89248 5.72674 4.68839C5.85013 4.50182 5.95614 4.30376 6.04478 4.09421C6.13346 3.88454 6.2017 3.6704 6.2495 3.4518C6.30539 3.1962 6.33333 2.93449 6.33333 2.66667C6.33333 2.39886 6.30539 2.13715 6.24951 1.88156C6.20171 1.66295 6.13346 1.4488 6.04478 1.23913C5.95614 1.02957 5.85013 0.831512 5.72674 0.644946C5.59175 0.440856 5.43597 0.250521 5.25939 0.0739418C5.08281 -0.102641 4.89247 -0.258426 4.68837 -0.393411C4.50181 -0.516801 4.30376 -0.622812 4.09421 -0.711445C3.88454 -0.800124 3.67041 -0.868364 3.45181 -0.916164C3.19621 -0.972055 2.93449 -1 2.66667 -1C2.39884 -1 2.13713 -0.972055 1.88153 -0.916165C1.66292 -0.868365 1.44879 -0.800125 1.23913 -0.711445C1.02958 -0.622813 0.831523 -0.516803 0.644962 -0.393414C0.440866 -0.258427 0.250526 -0.102642 0.0739418 0.0739416C-0.102643 0.250526 -0.258428 0.440867 -0.393415 0.644964C-0.516803 0.831524 -0.622813 1.02958 -0.711445 1.23913C-0.800125 1.44879 -0.868365 1.66293 -0.916165 1.88153C-0.972055 2.13713 -1 2.39884 -1 2.66667C-1 2.93449 -0.972055 3.1962 -0.916165 3.4518C-0.868365 3.67041 -0.800125 3.88454 -0.711445 4.09421C-0.622818 4.30374 -0.516814 4.50179 -0.393433 4.68834C-0.258443 4.89245 -0.102651 5.0828 0.0739416 5.25939C0.250522 5.43597 0.440859 5.59176 0.644951 5.72674C0.831516 5.85013 1.02957 5.95614 1.23913 6.04478C1.44879 6.13346 1.66293 6.2017 1.88154 6.2495ZM5.33333 2.66667C5.33333 4.13943 4.13943 5.33333 2.66667 5.33333C1.19391 5.33333 0 4.13943 0 2.66667C0 1.19391 1.19391 0 2.66667 0C4.13943 0 5.33333 1.19391 5.33333 2.66667Z" fill="rgb(67,167,179)" fill-rule="evenodd" transform="matrix(-1,-8.74228e-08,8.74228e-08,-1,56,34.6666)" />
			<path id="Vector" d="M2.66667 5.33333C4.13943 5.33333 5.33333 4.13943 5.33333 2.66667C5.33333 1.19391 4.13943 0 2.66667 0C1.19391 0 0 1.19391 0 2.66667C0 4.13943 1.19391 5.33333 2.66667 5.33333Z" fill="rgb(67,167,179)" fill-rule="evenodd" transform="matrix(-0.5,0.866,-0.866,-0.5,54.0811,41.7555)" />
			<path id="Vector" d="M1.88154 6.2495C2.13714 6.30539 2.39885 6.33333 2.66667 6.33333C2.93448 6.33333 3.19617 6.30539 3.45176 6.24951C3.67038 6.20171 3.88453 6.13346 4.09421 6.04478C4.30375 5.95615 4.5018 5.85014 4.68836 5.72676C4.89246 5.59177 5.0828 5.43598 5.25939 5.25939C5.43597 5.08281 5.59175 4.89248 5.72674 4.68839C5.85013 4.50182 5.95614 4.30376 6.04478 4.09421C6.13346 3.88454 6.2017 3.6704 6.2495 3.4518C6.30539 3.1962 6.33333 2.93449 6.33333 2.66667C6.33333 2.39886 6.30539 2.13715 6.24951 1.88156C6.20171 1.66295 6.13346 1.4488 6.04478 1.23913C5.95614 1.02957 5.85013 0.831512 5.72674 0.644946C5.59175 0.440856 5.43597 0.250521 5.25939 0.0739418C5.08281 -0.102641 4.89247 -0.258426 4.68837 -0.393411C4.50181 -0.516801 4.30376 -0.622812 4.09421 -0.711445C3.88454 -0.800124 3.67041 -0.868364 3.45181 -0.916164C3.19621 -0.972055 2.93449 -1 2.66667 -1C2.39884 -1 2.13713 -0.972055 1.88153 -0.916165C1.66292 -0.868365 1.44879 -0.800125 1.23913 -0.711445C1.02958 -0.622813 0.831523 -0.516803 0.644962 -0.393414C0.440866 -0.258427 0.250526 -0.102642 0.0739418 0.0739416C-0.102643 0.250526 -0.258428 0.440867 -0.393415 0.644964C-0.516803 0.831524 -0.622813 1.02958 -0.711445 1.23913C-0.800125 1.44879 -0.868365 1.66293 -0.916165 1.88153C-0.972055 2.13713 -1 2.39884 -1 2.66667C-1 2.93449 -0.972055 3.1962 -0.916165 3.4518C-0.868365 3.67041 -0.800125 3.88454 -0.711445 4.09421C-0.622818 4.30374 -0.516814 4.50179 -0.393433 4.68834C-0.258443 4.89245 -0.102651 5.0828 0.0739416 5.25939C0.250522 5.43597 0.440859 5.59176 0.644951 5.72674C0.831516 5.85013 1.02957 5.95614 1.23913 6.04478C1.44879 6.13346 1.66293 6.2017 1.88154 6.2495ZM5.33333 2.66667C5.33333 4.13943 4.13943 5.33333 2.66667 5.33333C1.19391 5.33333 0 4.13943 0 2.66667C0 1.19391 1.19391 0 2.66667 0C4.13943 0 5.33333 1.19391 5.33333 2.66667Z" fill="rgb(67,167,179)" fill-rule="evenodd" transform="matrix(-0.5,0.866,-0.866,-0.5,54.0811,41.7555)" />
		</g>
	</g>
</svg>
