<svg viewBox="0 0 101 101" xmlns="http://www.w3.org/2000/svg" xmlns:xlink="http://www.w3.org/1999/xlink" width="101.000000" height="101.000000" fill="none" customFrame="#000000">
	<mask id="mask_0" width="83.780472" height="92.583336" x="8.609375" y="4.208333" maskUnits="userSpaceOnUse">
		<g filter="url(#pixso_custom_mask_type_alpha)">
			<path id="Vector" d="M50.5002 96.7917L68.2636 87.1125C76.6206 82.5545 83.3693 75.531 87.5902 66.9988C91.8111 58.4666 93.299 48.8405 91.8513 39.4321L88.3752 16.8333C63.1252 16.8333 50.5002 4.20833 50.5002 4.20833C50.5002 4.20833 37.8752 16.8333 12.6252 16.8333L9.14912 39.4237C7.69954 48.8334 9.18658 58.4613 13.4076 66.9952C17.6286 75.5291 24.3783 82.554 32.7368 87.1125L50.5002 96.7917Z" fill="url(#paint_linear_0)" fill-rule="nonzero" />
		</g>
	</mask>
	<defs>
		<clipPath id="clipPath_0">
			<rect width="101.000000" height="101.000000" x="0.000000" y="0.000000" fill="rgb(255,255,255)" />
		</clipPath>
		<linearGradient id="paint_linear_0" x1="50.5002098" x2="50.5002098" y1="3.85062456" y2="96.9894638" gradientUnits="userSpaceOnUse">
			<stop stop-color="rgb(0,123,255)" offset="0" stop-opacity="1" />
			<stop stop-color="rgb(0,88.8565,184.215)" offset="1" stop-opacity="1" />
		</linearGradient>
		<filter id="pixso_custom_mask_type_alpha">
			<feColorMatrix type="matrix" values="0 0 0 0 1 0 0 0 0 1 0 0 0 0 1 0 0 0 1 0 " />
		</filter>
		<linearGradient id="paint_linear_1" x1="50.5002098" x2="50.5002098" y1="3.85062551" y2="96.9894638" gradientUnits="userSpaceOnUse">
			<stop stop-color="rgb(35,35,35)" offset="0" stop-opacity="1" />
			<stop stop-color="rgb(35,35,35)" offset="1" stop-opacity="1" />
		</linearGradient>
		<clipPath id="clipPath_1">
			<rect width="512.000000" height="512.000000" x="-205.000000" y="-219.000000" fill="rgb(255,255,255)" />
		</clipPath>
	</defs>
	<g id="Group 280">
		<g id="9004757_shield_security_protection_safety_icon (1) 1" clip-path="url(#clipPath_0)" customFrame="url(#clipPath_0)" mask="url(#mask_0)">
			<rect id="9004757_shield_security_protection_safety_icon (1) 1" width="101.000000" height="101.000000" x="0.000000" y="0.000000" fill="rgb(255,255,255)" fill-opacity="0" />
			<path id="Vector" d="M50.5002 96.7917L68.2636 87.1125C76.6206 82.5545 83.3693 75.531 87.5902 66.9988C91.8111 58.4666 93.299 48.8405 91.8513 39.4321L88.3752 16.8333C63.1252 16.8333 50.5002 4.20833 50.5002 4.20833C50.5002 4.20833 37.8752 16.8333 12.6252 16.8333L9.14912 39.4237C7.69954 48.8334 9.18658 58.4613 13.4076 66.9952C17.6286 75.5291 24.3783 82.554 32.7368 87.1125L50.5002 96.7917Z" fill="url(#paint_linear_1)" fill-rule="nonzero" />
			<path id="Vector" d="M50.5009 160.731L72.8363 148.583C83.3442 142.862 91.8299 134.046 97.1372 123.337C102.445 112.628 104.315 100.546 102.495 88.7373L98.1243 60.3729C66.3754 60.3729 50.5009 44.5269 50.5009 44.5269C50.5009 44.5269 34.6265 60.3729 2.87756 60.3729L-1.4932 88.7268C-3.31589 100.537 -1.44611 112.621 3.86133 123.333C9.16877 134.044 17.6557 142.861 28.1656 148.583L50.5009 160.731Z" fill="rgb(255,60,0)" fill-rule="nonzero" />
			<path id="rect3000-1-5" d="M50.7823 23.8927C49.7799 23.8913 48.7796 23.8958 47.7774 23.9056C42.3909 23.9993 36.9713 24.1307 31.6352 24.8789C29.7938 25.8186 28.8494 27.8814 27.6992 29.5133C25.6198 33.0063 24.6521 37.0201 23.5064 40.8769C23.0257 41.4015 22.697 42.1313 22.158 42.5721C21.6759 42.455 22.1929 41.3634 22.0745 40.8446C22.3568 39.2423 20.4462 38.2667 19.1145 38.8787C17.7666 39.4014 15.7241 39.5398 15.2042 41.1347C15.1906 42.9433 17.049 44.2972 18.787 44.0739C19.587 44.2049 19.9259 45.2056 20.4179 45.7562C20.4597 48.6772 19.7984 51.6054 19.962 54.548C20.0461 56.4098 19.8604 58.3682 20.4308 60.1556C20.5914 60.3256 20.7456 60.375 20.8931 60.3554C20.8609 60.462 20.8353 60.5714 20.8353 60.6842L20.8353 75.8442C20.8353 76.5055 21.435 77.1075 22.0938 77.1075L27.1278 77.1075C27.7866 77.1071 28.3863 76.5055 28.3863 75.8442L28.3863 70.6168L72.5813 70.6168L72.5813 75.8442C72.5813 76.5056 73.181 77.1071 73.8398 77.1075L78.8738 77.1075C79.5326 77.1071 80.1318 76.5056 80.1323 75.8442L80.1323 60.6842C80.1322 60.5644 80.1107 60.4487 80.0745 60.3361C80.9799 60.341 80.7513 58.8756 80.8963 58.2219C81.0498 54.2957 81.039 50.3005 80.4276 46.433C80.5309 45.4967 81.3486 44.6319 82.0393 44.0997C83.7025 44.1819 85.5399 43.224 85.7955 41.4376C85.5602 39.7786 83.4877 39.4399 82.1869 38.9625C81.0098 38.4737 79.0115 38.7025 78.893 40.2774C78.7682 40.9947 79.2295 42.1114 78.9123 42.5849C78.1813 42.2781 77.8901 41.3246 77.397 40.7286C76.3933 37.205 75.4824 33.5543 73.7628 30.2803C72.5769 28.3762 71.3806 26.2841 69.5507 24.9305C66.3785 24.2596 63.0406 24.4169 59.8038 24.1054C56.8 23.9596 53.7896 23.8971 50.7823 23.8927ZM50.5319 25.5235C56.4633 25.5234 62.3955 25.5425 62.8601 25.5879C63.2493 25.626 63.7526 25.7352 63.9901 25.8264C64.4608 26.0072 64.6408 26.1983 65.6981 27.6118C66.7492 29.0171 67.0766 29.3737 68.2986 30.4672C70.3889 32.3379 70.6068 32.6442 71.2072 34.5666C71.3975 35.1759 71.9623 36.9629 72.4657 38.5436C72.9691 40.1242 73.3704 41.5068 73.3582 41.6117L73.3389 41.805L68.26 41.8501C58.4652 41.9384 47.2321 41.9587 40.6373 41.9082C36.9757 41.8801 32.5636 41.856 30.8326 41.8501C28.058 41.8408 27.6802 41.8226 27.6414 41.7212C27.6173 41.658 27.9695 40.437 28.4248 39.0076C28.8801 37.5783 29.4483 35.7818 29.6897 35.0114C30.4008 32.7421 30.6439 32.3519 32.1425 31.0087C33.6867 29.6246 34.3256 28.9512 35.2181 27.773C35.7104 27.1231 36.2376 26.4487 36.3931 26.2776C36.7555 25.8789 37.2806 25.6846 38.2038 25.5944C38.6686 25.549 44.6005 25.5236 50.5319 25.5235ZM25.6831 44.4671C28.8358 45.1302 31.7112 47.1236 34.5953 48.5536C36.231 49.1733 38.4156 50.8603 37.1315 52.7948C34.9655 54.3309 31.9287 53.31 29.4521 53.246C27.4829 52.6802 24.386 52.8714 23.4358 50.6935C23.3124 48.6367 22.8402 44.7948 25.6831 44.4671ZM74.9314 44.5831C78.1346 44.4673 78.7475 49.8253 76.7292 51.5314C73.5422 53.5944 69.3811 53.3913 65.7109 53.42C63.9474 53.6985 62.2294 51.5383 64.0222 50.2745C67.2083 47.7301 70.9964 45.674 74.9314 44.5831Z" fill="rgb(255,255,255)" fill-rule="nonzero" />
			<g id="905665_car_citroen_vehicle_icon 1" clip-path="url(#clipPath_1)" customFrame="url(#clipPath_1)">
				<rect id="905665_car_citroen_vehicle_icon 1" width="512.000000" height="512.000000" x="-205.000000" y="-219.000000" fill="rgb(255,255,255)" fill-opacity="0" />
			</g>
		</g>
	</g>
</svg>
